<?xml version="1.0" encoding="UTF-8"?>
<svg data-bbox="20.099 0.32 482.85 294.762" style="max-width:100%;max-height:70vh" viewBox="0 0 595 344" height="auto" xmlns="http://www.w3.org/2000/svg" data-type="shape">
    <g>
        <path fill-rule="evenodd" d="M45.5.884C36.896 3.143 27.865 10.67 23.163 19.5c-2.632 4.942-2.667 5.271-2.98 28.291-.378 27.78.232 30.719 7.976 38.464 7.534 7.534 11.986 9.115 26.923 9.561 10.744.321 12.827.133 14.25-1.291 2.096-2.096 2.135-4.915.097-6.954-1.222-1.221-3.836-1.572-11.75-1.577-13.251-.007-17.165-1.15-22.343-6.526-3.233-3.357-4.423-5.572-5.322-9.902-1.989-9.579-3.119-8.993 18.497-9.597 17.203-.481 19.393-.744 23.284-2.793 10.603-5.585 16.37-14.167 17.028-25.342.4-6.779-1.373-14.336-4.256-18.139-1.25-1.65-1.667-1.68-4.845-.352-4.692 1.96-4.979 2.73-2.69 7.221 2.757 5.406 2.618 13.731-.315 18.909-1.238 2.185-4.268 5.335-6.734 7L65.5 49.5l-18.25.329-18.25.33v-7.413c0-4.077.494-9.872 1.097-12.877C32.46 18.106 42.32 10.043 54.446 9.957c5.588-.039 6.397-.344 10.513-3.957 2.453-2.153 4.118-4.257 3.7-4.674C67.606.273 49.168-.079 45.5.884m33-.011C65.884 4.205 56.545 16.66 56.661 30c.062 7.19 3.531 17 6.012 17 1.152 0 6.928-2.491 8.118-3.501.159-.136-.733-1.981-1.984-4.101-5.29-8.966-1.369-22.069 8.1-27.07 3.579-1.89 5.929-2.324 12.5-2.306 10.042.027 14.619 1.929 20.37 8.462 5.208 5.917 6.21 9.425 6.217 21.766L116 50l-15.75.041-15.75.041-4.287 3.877c-3.14 2.84-3.942 4.1-3 4.709.708.458 9.725.987 20.037 1.176l18.75.343v5.249c0 7.294-3.287 13.216-9.455 17.037-4.499 2.786-5.603 3.006-17.593 3.5-7.035.29-13.121.858-13.524 1.263-1.206 1.211-.653 7 .759 7.964.722.492 7.163.73 14.313.529 15.115-.427 20.053-2.149 27.189-9.482C124.944 78.791 126 74.258 126 50.568c0-17.61-.273-21.241-2.023-26.907-2.529-8.189-9.288-15.973-17.458-20.107C101.655 1.093 99.49.646 91.178.385 85.855.218 80.15.437 78.5.873M49.718 115.036c-5.65 1.413-9.489 3.67-14.975 8.801-5.859 5.481-9.162 11.569-10.654 19.637-1.445 7.818-1.447 70.223-.002 78.038 2.385 12.901 9.544 22.218 21.685 28.222l7.615 3.766 24.243.314c23.504.304 24.306.25 26.341-1.785 2.067-2.067 2.095-2.663 1.814-39.015-.221-28.652-.576-37.207-1.585-38.215-1.612-1.611-36.526-1.885-38.079-.299-1.865 1.904-2.243 5.955-.747 8 1.338 1.83 2.617 2 15.043 2h13.581l.001 29.344.001 29.343-18.75-.363c-16.407-.318-19.319-.624-23.301-2.449-6.537-2.997-11.914-8.105-14.598-13.868-2.317-4.977-2.331-5.243-2.319-44.007.014-44.472-.106-43.744 8.404-51.235 5.887-5.182 11.907-6.694 24.178-6.073 10.353.524 15.075 2.508 20.645 8.673 3.517 3.892 5.035 7.631 6.244 15.373.663 4.251 3.36 6.264 7.126 5.319 1.343-.337 2.862-1.718 3.375-3.069 1.194-3.139-.489-12.557-3.188-17.848-3.101-6.079-10.497-13.337-16.667-16.356-5.125-2.507-6.707-2.759-18.625-2.967-7.163-.125-14.726.199-16.806.719m308.317 2.898c-.569 1.064-1.035 6.914-1.035 13V142h-10.066c-11.862 0-13.934.793-13.934 5.335 0 5.127 1.247 5.665 13.125 5.665h10.725l.385 37.25c.338 32.678.604 37.832 2.167 41.994 2.609 6.946 9.528 14.104 17.361 17.96 6.33 3.116 7.253 3.282 20.295 3.64 8.592.236 14.412-.025 15.68-.704 2.54-1.359 3.392-5.509 1.645-8.004-1.167-1.666-2.988-1.958-14.608-2.342-14.881-.492-18.197-1.47-24.609-7.263-6.549-5.916-6.666-6.734-6.666-46.531v-35.5l16.789-.5c13.446-.4 16.977-.799 17.734-2 1.37-2.171 1.192-4.248-.58-6.777-1.5-2.143-2.145-2.223-17.89-2.223h-16.334l-.157-12.173c-.087-6.695-.388-12.545-.669-13s-2.269-.827-4.417-.827c-2.838 0-4.189.529-4.941 1.934M149 141.329c-6.447 1.51-14.701 5.571-17.405 8.563-2.569 2.843-3.595 2.652-3.595-.669 0-5.742-4.351-8.711-9.066-6.188-1.875 1.004-1.934 2.67-1.934 54.965s.059 53.961 1.934 54.965c2.864 1.532 5.551 1.261 7.366-.744 1.411-1.559 1.647-6.598 1.905-40.75.29-38.254.337-39.049 2.552-43.194 3.161-5.917 8.682-11.131 14.706-13.889 6.598-3.02 20.896-3.517 27.074-.94 8.297 3.461 13.758 11.059 14.98 20.841.791 6.332 2.755 8.362 7.047 7.284 3.532-.886 4.74-3.984 3.967-10.173-1.456-11.649-10.017-22.986-21.236-28.123-6.7-3.067-19.695-3.962-28.295-1.948m88.033 2.272c-10.205 2.742-20.353 11.177-25.377 21.092-4.111 8.113-4.852 14.763-4.489 40.319.326 23.008.387 23.604 2.993 29.163 3.754 8.007 9.899 14.265 17.733 18.06 6.374 3.086 7.14 3.213 21.683 3.585 16.693.427 18.424-.115 18.424-5.769 0-4.83-1.975-5.502-17.899-6.09-15.955-.589-18.259-1.273-24.146-7.16-4.733-4.733-6.907-10.237-6.933-17.551L219 213h20.341c22.884 0 26.586-.676 35.273-6.445 10.661-7.078 16.833-21.48 14.655-34.196-1.485-8.668-4.801-15.36-7.608-15.355-2.322.004-8.663 3.47-8.657 4.731.002.421 1.006 2.34 2.231 4.265 1.83 2.876 2.231 4.957 2.246 11.664.017 7.489-.231 8.52-3.012 12.476-1.667 2.372-5.23 5.673-7.918 7.336l-4.886 3.024-21.432.306-21.432.306.379-13.306c.435-15.306 1.702-18.85 9.412-26.343 5.376-5.225 12.045-7.655 20.822-7.588 5.272.041 6.797-.341 8.809-2.206 1.339-1.241 3.937-3.432 5.773-4.869l3.34-2.613-3.918-1.088c-5.485-1.523-19.869-1.249-26.385.502m39.253-.211c-10.266 3.356-17.928 10.227-22.512 20.19-3.452 7.503-3.257 20.822.421 28.67 1.626 3.471 3.327 5.75 4.29 5.75 1.389 0 9.522-3.651 9.511-4.27-.002-.127-1.127-2.444-2.5-5.149-4.574-9.016-3.006-20.313 3.805-27.419 5.586-5.827 9.398-7.163 20.409-7.152 12.186.012 17.598 2.202 24.55 9.935 6.148 6.837 7.74 12.234 7.74 26.237V201h-18.635c-18.041 0-18.703.072-20.75 2.253-1.163 1.239-3.653 3.447-5.533 4.907l-3.418 2.653 3.918 1.088c2.23.619 12.703 1.09 24.302 1.093l20.385.006-.485 6.75c-.779 10.852-5.533 17.982-14.784 22.169-3.79 1.716-6.59 2.041-17.75 2.059-11.9.02-13.454.226-15.25 2.022-2.403 2.403-2.538 4.786-.443 7.777 1.47 2.099 2.265 2.223 14.29 2.223 15.259 0 22.54-1.621 29.912-6.661 2.892-1.977 6.832-5.739 8.756-8.36 6.168-8.401 6.485-10.333 6.485-39.448 0-23.345-.213-26.836-1.94-31.858-3.794-11.025-11.373-19.176-22.63-24.338-5.102-2.339-7.466-2.761-16.93-3.02-7.393-.203-12.382.15-15.214 1.075m171.46-.304c-22.294 5.254-34.13 31.59-21.06 46.86 5.726 6.69 9.332 7.949 29.163 10.187 20.833 2.351 26.247 4.257 31.09 10.941 1.693 2.337 3.595 5.976 4.227 8.087 2.278 7.603-2.786 16.502-11.96 21.021-4.487 2.21-5.891 2.333-30.206 2.631-22.142.271-25.665.527-26.75 1.941-1.818 2.368-1.532 5.681.662 7.667 1.732 1.567 4.35 1.696 27.75 1.372 29.973-.415 33.3-1.172 42.163-9.592 8.354-7.936 11.848-18.331 9.313-27.701-2.809-10.38-12.39-20.758-22.138-23.98-2.475-.818-12.311-2.375-21.858-3.459-11.102-1.261-18.214-2.534-19.736-3.53-7.822-5.126-7.601-17.799.441-25.271 6.623-6.155 8.979-6.697 30.653-7.058 21.524-.357 22.5-.61 22.5-5.822 0-4.983-1.673-5.388-21.821-5.28-10.274.056-20.368.499-22.433.986M32.357 264.954C28.235 266.69 27 269.876 27 278.772c0 10.303 1.502 13.699 6.756 15.272 2.059.617 5.319.972 7.244.789l3.5-.333.289-8.75.289-8.75h-4.622c-5.082 0-5.98 2.242-1.129 2.816 2.561.304 2.673.565 2.673 6.25V292h-3.777c-2.078 0-4.778-.701-6-1.557-2.026-1.418-2.223-2.38-2.223-10.845 0-7.728.307-9.566 1.829-10.943 3.339-3.022 10.171-1.423 10.171 2.38 0 1.081.675 1.965 1.5 1.965 2.263 0 1.8-3.37-.798-5.81-2.684-2.522-7.299-3.519-10.345-2.236M122 266c0 .55 1.575 1 3.5 1h3.5v13.5c0 11.333.241 13.5 1.5 13.5s1.5-2.167 1.5-13.5V267h3.5c1.925 0 3.5-.45 3.5-1 0-.588-3.5-1-8.5-1s-8.5.412-8.5 1m242.174 1.314c-4.444 4.732-1.787 11.244 5.033 12.335 7.108 1.137 9.943 6.201 5.793 10.351-1.522 1.522-3.333 2-7.583 2-4.019 0-5.469.35-5.173 1.25.569 1.734 6.49 2.145 11.084.769 9.836-2.945 6.877-17.019-3.578-17.019-3.078 0-4.75-1.774-4.75-5.039 0-3.097 3.211-4.961 8.547-4.961 1.899 0 3.453-.45 3.453-1s-2.397-1-5.326-1c-4.274 0-5.755.457-7.5 2.314m-152.845 2.461c-.644.41-1.5 2.091-1.904 3.735-.403 1.645-1.226 3.362-1.829 3.816-.777.586-.732.974.154 1.333.841.342 1.25 2.916 1.25 7.865 0 4.047.45 7.636 1 7.976.635.392 1-2.323 1-7.441 0-7.392.165-8.059 2-8.059 1.1 0 2-.45 2-1s-.93-1-2.066-1c-3.082 0-2.329-5.373.816-5.82 1.238-.175 2.25-.738 2.25-1.25 0-1.108-3.015-1.208-4.671-.155m192.338-.108c-1.103 1.102-.784 25.333.333 25.333.615 0 1-5 1-13 0-7.15-.15-13-.333-13s-.634.3-1 .667M310 271c0 .55.45 1 1 1s1-.45 1-1-.45-1-1-1-1 .45-1 1m133 0c0 .55.45 1 1 1s1-.45 1-1-.45-1-1-1-1 .45-1 1m-143.85 3.25c-.093 1.711-.717 2.75-1.65 2.75-.825 0-1.5.45-1.5 1s.675 1 1.5 1c1.2 0 1.5 1.498 1.5 7.481 0 7.202.096 7.505 2.573 8.127 1.454.365 3.064.155 3.7-.481.836-.836.46-1.127-1.456-1.127-2.988 0-3.782-1.932-3.803-9.25-.013-4.404.168-4.75 2.486-4.75 1.375 0 2.5-.45 2.5-1s-1.095-1-2.434-1c-1.887 0-2.527-.617-2.85-2.75l-.416-2.75zm133 0c-.093 1.711-.717 2.75-1.65 2.75-.825 0-1.5.45-1.5 1s.655 1 1.456 1c1.112 0 1.526 1.691 1.75 7.145.317 7.701 1.774 9.947 5.408 8.338 1.699-.752 1.638-.877-.614-1.26-3.4-.578-3.967-1.782-3.985-8.473-.014-5.471.106-5.75 2.485-5.75 1.375 0 2.5-.45 2.5-1s-1.095-1-2.434-1c-1.887 0-2.527-.617-2.85-2.75l-.416-2.75zM49 286c0 5.333.407 9 1 9 .557 0 1-2.689 1-6.066 0-7.286 1.209-9.934 4.535-9.934 1.356 0 2.465-.45 2.465-1 0-1.401-4.349-1.251-5.8.2-.933.933-1.2.933-1.2 0 0-.66-.45-1.2-1-1.2-.593 0-1 3.667-1 9m13.174-6.686c-3.136 3.339-2.996 9.955.281 13.231 1.35 1.35 3.55 2.455 4.889 2.455 2.403 0 8.272-3.902 5.965-3.967-.655-.018-1.469.417-1.809.967-.863 1.396-6.848 1.252-8.3-.2-.66-.66-1.2-2.235-1.2-3.5 0-2.144.406-2.3 6-2.3 5.733 0 6-.111 6-2.5 0-5.87-7.687-8.591-11.826-4.186m18.281.141c-3.411 3.411-3.411 9.679 0 13.09 3.012 3.013 7.544 3.218 10.045.455.995-1.1 1.317-2 .714-2s-1.374.45-1.714 1c-.96 1.554-6.18 1.178-7.929-.571-.864-.865-1.571-2.44-1.571-3.5 0-1.708.747-1.929 6.519-1.929h6.519l-.653-2.75c-1.534-6.454-7.404-8.322-11.93-3.795M98.19 286c.088 5.225.307 7.475.488 5 .638-8.716 1.301-10.857 3.607-11.64 5.353-1.818 6.679-.058 6.7 8.89.008 3.823.449 6.75 1.015 6.75 1.681 0 1.213-13.251-.557-15.777-1.73-2.471-6.259-3.007-8.285-.981-.988.988-1.433.938-2.184-.25-.624-.987-.889 1.726-.784 8.008m43.81 0c0 5.333.407 9 1 9 .569 0 1-2.933 1-6.8 0-7.298.972-9.2 4.7-9.2 1.265 0 2.3-.45 2.3-1 0-1.401-4.349-1.251-5.8.2-.933.933-1.2.933-1.2 0 0-.66-.45-1.2-1-1.2-.593 0-1 3.667-1 9m13.441-7.532c-2.291 1.733-1.581 1.916 2.059.532 3.51-1.335 6.733.353 6.311 3.304-.238 1.656-1.214 2.315-4.129 2.786-4.974.804-7.135 2.969-6.296 6.31.778 3.103 4.649 4.361 8.3 2.697 1.928-.878 2.877-.874 3.95.016.777.645 1.726.858 2.109.475s.204-1.01-.4-1.392c-.603-.383-1.288-3.764-1.522-7.514-.281-4.486-.922-7.132-1.875-7.735-2.185-1.382-6.326-1.129-8.507.521M172 286c0 5.333.407 9 1 9 .569 0 1-2.933 1-6.8 0-7.497.952-9.2 5.141-9.2 3.57 0 3.878.643 4.07 8.501.226 9.195 1.789 9.308 1.789.129 0-5.473-.423-7.91-1.571-9.059-1.814-1.813-4.72-2.021-7.495-.536-1.333.714-1.934.714-1.934 0 0-.569-.45-1.035-1-1.035-.593 0-1 3.667-1 9m20.571-7.429c-.864.865-1.571 2.145-1.571 2.845 0 1.829 3.047 4.315 6.276 5.121 3.324.83 5.158 3.629 3.477 5.31-1.457 1.457-5.267 1.484-7.934.056-1.619-.866-1.956-.814-1.603.25.705 2.123 5.398 3.369 8.534 2.266 2.281-.802 2.75-1.555 2.75-4.415 0-3.167-.361-3.581-4.456-5.093-5.002-1.848-6.156-3.625-3.578-5.51 1.236-.904 2.476-.993 4.276-.309 2.872 1.092 4.466.283 2.229-1.131-2.284-1.445-6.663-1.126-8.4.61m27.884.884C215.326 284.583 218.707 295 225.5 295c1.425 0 3.695-1.105 5.045-2.455 5.129-5.128 1.748-15.545-5.045-15.545-1.425 0-3.695 1.105-5.045 2.455m18.227-1.803c-1.078 1.077-.793 16.161.318 16.848.62.383 1-1.468 1-4.876 0-7.534 1.302-10.624 4.475-10.624 1.389 0 2.525-.45 2.525-1 0-1.253-3.015-1.276-4.974-.037-.919.581-1.697.57-2.068-.031-.327-.529-.901-.655-1.276-.28M251 286c0 5.333.407 9 1 9 .569 0 1-2.933 1-6.8 0-7.31.97-9.2 4.725-9.2 2.923 0 4.214 3.137 4.45 10.815.159 5.171.204 5.278.503 1.185.639-8.735 1.35-11.074 3.627-11.934 4.38-1.655 5.695.301 5.695 8.469 0 4.31.423 7.465 1 7.465 1.681 0 1.213-13.251-.557-15.777-1.848-2.639-5.627-2.896-7.981-.542-1.574 1.574-1.74 1.574-2.621 0-1.089-1.947-5.874-2.248-7.641-.481-.933.933-1.2.933-1.2 0 0-.66-.45-1.2-1-1.2-.593 0-1 3.667-1 9m30.75-7.92c-2.771 1.614-2.033 2.948.814 1.471 3.151-1.634 6.17-.964 6.967 1.548.846 2.664-.222 3.901-3.368 3.901-4.124 0-7.336 2.686-6.97 5.828.414 3.557 4.663 5.12 8.444 3.106 2.097-1.118 2.783-1.158 3.11-.184.498 1.482 3.253 1.694 3.253.25 0-.55-.45-1-1-1-.551 0-1-2.592-1-5.777 0-6.919-1.89-10.237-5.807-10.193-1.481.017-3.481.489-4.443 1.05m28.25 7.361c0 4.643.45 8.719 1 9.059.639.395 1-2.656 1-8.441 0-5.373-.407-9.059-1-9.059-.588 0-1 3.48-1 8.441m10.488-6.786c-7.246 7.246-.233 20.025 8.441 15.383 4.575-2.449 5.1-12.504.809-15.509-2.863-2.005-7.178-1.946-9.25.126M338 286c0 5.333.407 9 1 9 .571 0 1-2.981 1-6.943 0-5.882.316-7.165 2.065-8.39 1.977-1.385 5.473-1.223 6.412.297.246.397.53 3.731.631 7.41.253 9.203 1.892 9.498 1.892.34 0-5.903-.371-7.74-1.829-9.059-2.1-1.9-4.465-2.103-7.237-.62-1.333.714-1.934.714-1.934 0 0-.569-.45-1.035-1-1.035-.593 0-1 3.667-1 9m47-7c-3.189 3.189-3.064 10.209.246 13.75 5.559 5.948 13.99-.346 12.328-9.205-1.144-6.102-8.396-8.723-12.574-4.545m26.1 3.75c.055 3.163.411 6.871.793 8.241.904 3.248 5.387 4.94 8.29 3.127 1.721-1.075 2.233-1.068 2.936.04.497.784.791-2.608.708-8.158-.137-9.162-.163-9.265-.734-2.9-.655 7.292-2.151 9.9-5.68 9.9-3.193 0-4.413-2.746-4.413-9.934 0-3.377-.443-6.066-1-6.066-.562 0-.956 2.517-.9 5.75M443 286c0 5.333.407 9 1 9s1-3.667 1-9-.407-9-1-9-1 3.667-1 9m10.789-7.637c-4.245 3.226-4.505 10.139-.541 14.387 5.555 5.951 13.988-.347 12.326-9.205-1.058-5.643-7.468-8.462-11.785-5.182M471 286c0 5.333.407 9 1 9 .571 0 1-2.981 1-6.943 0-5.936.307-7.159 2.115-8.425 1.376-.963 2.863-1.207 4.25-.696 1.852.681 2.175 1.699 2.436 7.675.427 9.769 2.199 10.705 2.199 1.16 0-5.601-.418-8.046-1.571-9.2-1.86-1.859-6.53-2.07-8.229-.371-.933.933-1.2.933-1.2 0 0-.66-.45-1.2-1-1.2-.593 0-1 3.667-1 9m20.571-7.429c-.864.865-1.571 2.145-1.571 2.845 0 1.829 3.047 4.315 6.276 5.121 3.324.83 5.158 3.629 3.477 5.31-1.416 1.416-6.407 1.522-7.253.153-.34-.55-1.379-.985-2.309-.967-2.965.059 2.679 3.967 5.729 3.967 4.066 0 6.309-2.095 5.916-5.527-.281-2.447-1.075-3.199-4.836-4.582-4.985-1.832-6.208-4.174-3.06-5.859 1.505-.805 2.622-.801 4.146.014 2.404 1.286 4.095.313 1.885-1.085-2.284-1.445-6.663-1.126-8.4.61M65 279.313c-4.059 2.023-3.724 4.38.699 4.921 2.091.255 4.386.251 5.1-.011 1.8-.658 1.105-3.217-1.308-4.816-1.619-1.072-2.493-1.091-4.491-.094m18.352-.247c-2.026.749-3.879 3.74-2.915 4.705.6.599 9.66.466 10.277-.152.856-.856-1.661-4.372-3.47-4.845-1-.261-2.752-.13-3.892.292M224 278.694c-2.517.9-4 3.518-4 7.063 0 5.218 1.538 7.243 5.5 7.243 4.001 0 5.5-2.026 5.5-7.434 0-2.233-.748-4.314-2-5.566-2.081-2.081-2.514-2.194-5-1.306m97.455 1.761C316.943 284.966 319.213 293 325 293s8.057-8.034 3.545-12.545C327.195 279.105 325.6 278 325 278s-2.195 1.105-3.545 2.455m65.429-.562c-1.743 1.411-2.339 2.908-2.339 5.874 0 4.838 1.796 7.233 5.422 7.233 6.09 0 8.445-8.958 3.398-12.927-3.227-2.539-3.557-2.548-6.481-.18m69.431-.831c-4.255 1.608-5.475 8.631-2.187 12.593 1.781 2.145 6.55 1.642 8.315-.878 3.917-5.591-.416-13.873-6.128-11.715m-299.733 8.254c-2.647 1.936-1.644 5.117 1.737 5.506 3.476.4 5.681-1.325 5.681-4.444 0-1.94-.518-2.378-2.809-2.378-1.545 0-3.619.592-4.609 1.316m126 0c-2.706 1.979-1.638 5.119 1.877 5.52 3.169.361 5.541-1.791 5.541-5.027 0-2.201-4.659-2.51-7.418-.493"/>
    </g>
</svg>
