<?xml version="1.0" encoding="UTF-8"?>
<svg data-bbox="20 0.281 105.905 95.677" style="max-width:100%;max-height:70vh" viewBox="0 0 143 102" height="auto" xmlns="http://www.w3.org/2000/svg" data-type="shape">
    <g>
        <path fill-rule="evenodd" d="M44.951 1.299c-9.71 2.753-19.298 11.668-22.897 21.287C20.208 27.52 20 30.329 20 50.378v22.303l3.076 6.154c3.304 6.613 8.907 11.968 15.501 14.817 2.743 1.185 7.704 1.827 16.489 2.134 10.827.378 12.799.206 14.25-1.245 2.111-2.111 2.156-4.926.113-6.97C68.191 86.334 65.527 86 56.896 86c-12.041 0-16.372-1.184-21.235-5.803-4.048-3.845-5.598-7.305-6.306-14.076l-.62-5.929 18.883-.346c18.301-.335 19.057-.432 24.564-3.136 9.478-4.655 15.624-13.478 16.557-23.769.605-6.668-1.123-14.888-3.861-18.369-1.684-2.141-2.296-2.322-4.845-1.434-4.713 1.643-5.256 3.013-2.949 7.44 1.608 3.086 1.97 5.349 1.7 10.616-.292 5.691-.8 7.257-3.392 10.461-1.677 2.072-4.997 4.797-7.378 6.056C63.984 49.842 62.488 50 46.343 50H29v-7.951c0-4.373.491-10.242 1.092-13.043 2.34-10.91 12.609-18.969 24.272-19.047 5.724-.038 6.432-.308 10.535-4.018 2.419-2.187 4.12-4.256 3.779-4.597C67.391.058 49.448.023 44.951 1.299m31.869.217C70.389 3.582 61.878 11.533 59.044 18.12c-3.022 7.024-3.026 16.727-.009 23.74 2.451 5.697 3.747 6.18 8.617 3.211l3.151-1.922-2.477-4.825c-4.538-8.839-1.612-19.162 7.107-25.074 4.501-3.052 5.318-3.249 13.43-3.228 10.148.026 14.721 1.737 20.338 7.609 5.603 5.857 6.799 9.698 6.799 21.837V50H84.724l-4.31 3.973c-2.962 2.73-3.936 4.216-3.112 4.75.659.427 9.636.932 19.948 1.121l18.75.343v5.711c0 6.954-3.656 13.483-9.629 17.195-3.443 2.141-5.254 2.446-16.371 2.758-6.875.192-13.062.81-13.75 1.372-1.716 1.403-1.574 6.263.227 7.758 1.051.872 5.017 1.111 13.75.828 15.259-.494 20.41-2.443 27.787-10.514 7.473-8.177 8.198-11.666 7.807-37.546-.311-20.588-.404-21.425-2.981-26.924-3.576-7.628-9.539-13.862-16.55-17.302C101.415 1.13 98.999.629 91 .347c-6.532-.23-10.962.136-14.18 1.169"/>
    </g>
</svg>
