<?xml version="1.0" encoding="UTF-8"?>
<svg id="Layer_1" data-name="Layer 1" xmlns="http://www.w3.org/2000/svg" viewBox="0 0 1080 1080">
  <defs>
    <style>
      .cls-1 {
        fill: #00973c;
      }

      .cls-2 {
        fill: #8d9ea6;
      }
    </style>
  </defs>
  <g>
    <path class="cls-2" d="M252.69,553.66c-6.84,0-10.27-3.32-10.27-9.98v-.86c-.19-11.41-4.56-21.39-13.12-29.94-8.18-8.17-18.25-12.26-30.23-12.26h-20.25c-11.98,0-22.24,4.28-30.8,12.83-8.37,8.37-12.55,18.54-12.55,30.51v117.21c0,14.26,4.94,26.05,14.83,35.36,9.88,9.13,21.86,13.97,35.93,14.54.19-.19,1.23-.29,3.14-.29h53.04v-103.8h-43.63c-6.85,0-10.27-3.32-10.27-9.98s3.42-10.27,10.27-10.27h53.61c7.03,0,10.55,3.42,10.55,10.27v124.05c0,6.84-3.52,10.27-10.55,10.27h-59.32c-.19.19-1.14.29-2.85.29h-1.14c-20.53,0-38.03-6.65-52.47-19.96-14.26-13.3-21.39-30.13-21.39-50.48v-117.21c0-17.68,6.08-32.6,18.25-44.77,12.36-12.36,27.28-18.72,44.77-19.11h.86v-.57h19.68v.57h.86c17.3.38,32.13,6.66,44.49,18.82,12.16,12.17,18.44,27.09,18.82,44.77,0,6.66-3.42,9.98-10.27,9.98Z"/>
    <path class="cls-2" d="M706.47,671.15v-120.34h-33.37c-6.84,0-10.27-3.32-10.27-9.98s3.42-10.27,10.27-10.27h33.37v-37.36c0-6.84,3.42-10.27,10.27-10.27s10.26,3.42,10.26,10.27v37.36h53.04c6.65,0,9.98,3.42,9.98,10.27s-3.33,9.98-9.98,9.98h-53.04v119.77h.29v.28c0,11.6,3.99,21.1,11.98,28.52,8.56,7.41,18.34,11.22,29.37,11.41h32.22c7.03,0,10.55,3.42,10.55,10.27s-3.52,10.27-10.55,10.27h-31.08c-.19,0-.48-.09-.86-.28-16.16-.19-30.51-5.7-43.06-16.54-11.79-10.45-18.16-24.14-19.11-41.06-.19-.38-.28-1.14-.28-2.28Z"/>
    <path class="cls-2" d="M908.88,617.25c15.21,1.52,28.23,7.8,39.07,18.82,10.84,10.84,17.01,23.86,18.53,39.07h-.86.86c-1.52,16.35-8.27,29.76-20.25,40.21-11.6,10.46-25.95,15.68-43.06,15.68h-1.14c-.38.19-.67.28-.86.28h-72.15c-6.84,0-10.27-3.42-10.27-10.27s3.42-10.27,10.27-10.27h73.57c5.7,0,11.02-.81,15.97-2.42,4.94-1.61,9.36-3.99,13.26-7.13,3.89-3.14,7.08-6.84,9.55-11.12,2.47-4.28,3.99-9.17,4.56-14.69-1.52-10.27-5.85-18.87-12.98-25.81-7.13-6.94-15.83-10.88-26.09-11.83l-47.34-5.13v-.28c-11.41-.38-21.01-4.56-28.8-12.55-7.61-7.98-11.6-17.58-11.98-28.8v-1.43c.38-16.92,6.56-30.89,18.54-41.92,12.16-11.02,26.71-16.73,43.63-17.11h55.04c6.65,0,9.98,3.42,9.98,10.27s-3.33,9.98-9.98,9.98h-55.04c-5.7.19-11.08,1.24-16.11,3.14-5.04,1.9-9.41,4.56-13.12,7.99-3.71,3.42-6.7,7.46-8.98,12.12-2.28,4.66-3.52,9.84-3.71,15.54,0,5.9,1.95,10.93,5.85,15.11,3.89,4.18,8.79,6.56,14.69,7.13l1.42.28h.29l47.62,5.13Z"/>
    <path class="cls-2" d="M427.44,587.51c-3.72-36.97-26.32-60.38-60.68-60.38h-13.12c-19.95.77-36.98,8.47-51.04,23.1v-9.41c0-6.85-3.42-10.27-10.27-10.27s-9.97,3.42-9.97,10.27v180.23c0,6.85,3.32,10.27,9.97,10.27s10.27-3.42,10.27-10.27v-120.63c.38-14.45,5.42-26.51,15.12-36.21,9.88-10.27,21.96-15.77,36.21-16.54h12.27c.62,0,1.23.01,1.84.04,10.71.31,20.08,3.52,27.02,10.5,6.68,6.71,11.14,16.89,12.41,31.36.46,5.13,4.82,9.05,10,9.05,5.62,0,10.03-4.59,10.03-10.08,0-.33-.01-.68-.05-1.03Z"/>
    <path class="cls-1" d="M210.69,312.95c3.99,5.8,6.33,12.83,6.33,20.39,0,19.89-16.18,36.07-36.07,36.07h-51.32v-28.5c0-24.07,19.58-43.64,43.64-43.64h7.68c1.32,0,2.62.08,3.9.21,3.95-5.13,8.72-9.57,14.07-13.15-5.61-2.06-11.66-3.19-17.97-3.19h-7.68c-32.96,0-59.77,26.81-59.77,59.77v55.83c0,28.18,22.92,51.1,51.1,51.1h29.62c4.45,0,8.06-3.61,8.06-8.06s-3.61-8.06-8.06-8.06h-29.62c-19.29,0-34.98-15.69-34.98-34.98v-11.2h51.32c28.78,0,52.19-23.41,52.19-52.2,0-10.47-3.11-20.23-8.44-28.41-5.39,1.31-10.22,4.12-14.01,8.02Z"/>
    <path class="cls-1" d="M239.33,281.14h-7.68c-28.78,0-52.19,23.41-52.19,52.19,0,10.47,3.11,20.22,8.43,28.39,5.42-1.32,10.25-4.15,14.01-8.02-3.98-5.8-6.32-12.82-6.32-20.37,0-19.89,16.18-36.07,36.07-36.07h7.68c24.07,0,43.64,19.58,43.64,43.64v28.5h-51.32c-1.31,0-2.61-.07-3.88-.21-3.92,5.11-8.66,9.57-14.02,13.17,5.59,2.05,11.62,3.17,17.91,3.17h51.32v11.2c0,19.29-15.69,34.98-34.98,34.98h-29.62c-4.45,0-8.06,3.61-8.06,8.06s3.61,8.06,8.06,8.06h29.62c28.18,0,51.1-22.92,51.1-51.1v-55.83c0-32.96-26.81-59.77-59.77-59.77Z"/>
    <path class="cls-1" d="M559.55,568.64c4.76,6.93,7.56,15.31,7.56,24.34,0,23.74-19.32,43.06-43.06,43.06h-61.26v-34.02c0-28.73,23.37-52.09,52.09-52.09h9.16c1.57,0,3.13.09,4.65.26,4.72-6.12,10.41-11.42,16.8-15.69-6.69-2.46-13.92-3.81-21.45-3.81h-9.16c-39.34,0-71.34,32-71.34,71.34v66.63c0,33.63,27.36,60.99,60.99,60.99h35.36c5.31,0,9.62-4.31,9.62-9.62s-4.31-9.62-9.62-9.62h-35.36c-23.02,0-41.75-18.73-41.75-41.75v-13.37h61.26c34.35,0,62.3-27.95,62.3-62.3,0-12.5-3.71-24.14-10.08-33.91-6.43,1.57-12.2,4.92-16.73,9.57Z"/>
    <path class="cls-1" d="M593.73,530.67h-9.16c-34.35,0-62.3,27.95-62.3,62.3,0,12.49,3.71,24.13,10.07,33.89,6.46-1.58,12.23-4.95,16.72-9.58-4.76-6.92-7.55-15.3-7.55-24.32,0-23.74,19.32-43.06,43.06-43.06h9.16c28.73,0,52.09,23.37,52.09,52.09v34.02h-61.26c-1.57,0-3.11-.09-4.64-.25-4.68,6.1-10.34,11.42-16.74,15.72,6.67,2.44,13.87,3.78,21.37,3.78h61.26v13.37c0,23.02-18.73,41.75-41.75,41.75h-35.36c-5.31,0-9.62,4.31-9.62,9.62s4.31,9.62,9.62,9.62h35.36c33.63,0,60.99-27.36,60.99-60.99v-66.63c0-39.34-32-71.34-71.34-71.34Z"/>
  </g>
  <path class="cls-1" d="M155.06,760.54c-1.44,0-2.16-.7-2.16-2.1v-.18c-.04-2.4-.96-4.49-2.76-6.29-1.72-1.72-3.83-2.58-6.35-2.58h-4.25c-2.52,0-4.67.9-6.47,2.7-1.76,1.76-2.64,3.89-2.64,6.41v24.62c0,2.99,1.04,5.47,3.12,7.43,2.08,1.92,4.59,2.94,7.55,3.05.04-.04.26-.06.66-.06h11.14v-21.81h-9.17c-1.44,0-2.16-.7-2.16-2.1s.72-2.16,2.16-2.16h11.26c1.48,0,2.22.72,2.22,2.16v26.06c0,1.44-.74,2.16-2.22,2.16h-12.46s-.24.06-.6.06h-.24c-4.31,0-7.99-1.4-11.02-4.19-3-2.79-4.49-6.33-4.49-10.6v-24.62c0-3.71,1.28-6.85,3.83-9.4,2.6-2.6,5.73-3.93,9.4-4.01h.18v-.12h4.13v.12h.18c3.63.08,6.75,1.4,9.34,3.95,2.56,2.56,3.87,5.69,3.95,9.4,0,1.4-.72,2.1-2.16,2.1Z"/>
  <g>
    <path class="cls-2" d="M164.36,798.07v-31.64h2.5l.26,5.87h.2c1.01-1.93,2.27-3.53,3.79-4.78,1.52-1.25,3.24-1.88,5.17-1.88.57,0,1.11.04,1.62.13.5.09,1.02.26,1.55.53l-.79,2.51c-.44-.13-.85-.23-1.22-.3-.37-.07-.89-.1-1.55-.1-1.41,0-2.89.6-4.45,1.81-1.56,1.21-2.96,3.31-4.19,6.3v21.56h-2.9Z"/>
    <path class="cls-2" d="M196.86,798.86c-2.68,0-5.13-.66-7.35-1.98-2.22-1.32-3.99-3.22-5.31-5.7-1.32-2.48-1.98-5.44-1.98-8.87s.66-6.45,1.98-8.93c1.32-2.48,3.03-4.39,5.14-5.73,2.11-1.34,4.33-2.01,6.66-2.01,2.51,0,4.67.57,6.49,1.71,1.82,1.14,3.22,2.8,4.19,4.98.97,2.17,1.45,4.82,1.45,7.94v1.19c0,.4-.04.79-.13,1.19h-23.93v-2.37h21.29c0-4.09-.84-7.13-2.51-9.13-1.67-2-3.93-3-6.79-3-1.76,0-3.47.51-5.14,1.52-1.67,1.01-3.05,2.56-4.15,4.65-1.1,2.09-1.65,4.71-1.65,7.88.04,2.94.59,5.47,1.65,7.58s2.48,3.74,4.29,4.88c1.8,1.14,3.82,1.71,6.06,1.71,1.71,0,3.28-.24,4.71-.73,1.43-.48,2.69-1.1,3.79-1.85l1.19,1.98c-1.23.84-2.62,1.56-4.15,2.18-1.54.61-3.47.92-5.8.92Z"/>
    <path class="cls-2" d="M228.96,798.86c-2.68,0-5.13-.66-7.35-1.98-2.22-1.32-3.99-3.22-5.31-5.7-1.32-2.48-1.98-5.44-1.98-8.87s.66-6.45,1.98-8.93c1.32-2.48,3.03-4.39,5.14-5.73,2.11-1.34,4.33-2.01,6.66-2.01,2.51,0,4.67.57,6.49,1.71,1.82,1.14,3.22,2.8,4.19,4.98.97,2.17,1.45,4.82,1.45,7.94v1.19c0,.4-.04.79-.13,1.19h-23.93v-2.37h21.29c0-4.09-.84-7.13-2.51-9.13-1.67-2-3.93-3-6.79-3-1.76,0-3.47.51-5.14,1.52-1.67,1.01-3.05,2.56-4.15,4.65-1.1,2.09-1.65,4.71-1.65,7.88.04,2.94.59,5.47,1.65,7.58s2.48,3.74,4.29,4.88c1.8,1.14,3.82,1.71,6.06,1.71,1.71,0,3.28-.24,4.71-.73,1.43-.48,2.69-1.1,3.79-1.85l1.19,1.98c-1.23.84-2.62,1.56-4.15,2.18-1.54.61-3.47.92-5.8.92Z"/>
    <path class="cls-2" d="M249.07,798.07v-31.64h2.5l.26,4.88h.2c1.63-1.62,3.31-2.98,5.04-4.05,1.74-1.08,3.68-1.62,5.83-1.62,3.3,0,5.71,1,7.25,3,1.54,2,2.31,5.04,2.31,9.13v20.3h-2.9v-19.91c0-3.38-.56-5.88-1.68-7.48-1.12-1.6-2.98-2.41-5.57-2.41-1.85,0-3.54.49-5.08,1.48-1.54.99-3.3,2.47-5.27,4.45v23.86h-2.9Z"/>
  </g>
  <path class="cls-1" d="M320.51,745.68c1.44,0,2.16.72,2.16,2.16s-.72,2.1-2.16,2.1h-11.32v45.83c0,1.4-.7,2.1-2.1,2.1s-2.04-.7-2.04-2.1v-45.83h-11.32c-1.4,0-2.1-.7-2.1-2.1s.7-2.16,2.1-2.16h26.78Z"/>
  <g>
    <path class="cls-2" d="M328.71,798.07v-31.64h2.5l.26,5.87h.2c1.01-1.93,2.27-3.53,3.79-4.78,1.52-1.25,3.24-1.88,5.17-1.88.57,0,1.11.04,1.62.13.5.09,1.02.26,1.55.53l-.79,2.51c-.44-.13-.85-.23-1.22-.3-.37-.07-.89-.1-1.55-.1-1.41,0-2.89.6-4.45,1.81-1.56,1.21-2.96,3.31-4.19,6.3v21.56h-2.9Z"/>
    <path class="cls-2" d="M355.41,798.86c-1.67,0-3.2-.32-4.58-.96-1.38-.64-2.49-1.59-3.33-2.87-.84-1.27-1.25-2.88-1.25-4.81,0-3.52,1.64-6.2,4.91-8.04,3.27-1.85,8.43-3.16,15.46-3.96.04-1.62-.12-3.21-.49-4.75-.37-1.54-1.1-2.8-2.17-3.79-1.08-.99-2.67-1.48-4.78-1.48s-4.04.41-5.8,1.22c-1.76.81-3.19,1.59-4.29,2.34l-1.32-2.04c.75-.57,1.71-1.18,2.9-1.81,1.19-.64,2.54-1.18,4.05-1.62,1.52-.44,3.13-.66,4.85-.66,2.51,0,4.48.55,5.93,1.65,1.45,1.1,2.49,2.57,3.13,4.42.64,1.85.96,3.89.96,6.13v20.24h-2.5l-.26-4.09h-.2c-1.58,1.28-3.33,2.41-5.24,3.4-1.91.99-3.9,1.48-5.97,1.48ZM355.94,796.35c1.8,0,3.55-.44,5.24-1.32,1.69-.88,3.5-2.15,5.44-3.82v-10.75c-4.31.48-7.72,1.15-10.25,2.01-2.53.86-4.35,1.91-5.47,3.16s-1.68,2.71-1.68,4.38c0,2.24.67,3.86,2.01,4.85,1.34.99,2.91,1.48,4.71,1.48Z"/>
    <path class="cls-2" d="M381.12,798.07v-31.64h2.5l.26,4.88h.2c1.63-1.62,3.31-2.98,5.04-4.05,1.74-1.08,3.68-1.62,5.83-1.62,3.3,0,5.71,1,7.25,3,1.54,2,2.31,5.04,2.31,9.13v20.3h-2.9v-19.91c0-3.38-.56-5.88-1.68-7.48-1.12-1.6-2.98-2.41-5.57-2.41-1.85,0-3.54.49-5.08,1.48-1.54.99-3.3,2.47-5.27,4.45v23.86h-2.9Z"/>
    <path class="cls-2" d="M424.1,798.86c-2.46,0-4.67-.39-6.63-1.19-1.96-.79-3.62-1.87-4.98-3.23l1.58-1.85c1.32,1.14,2.76,2.06,4.32,2.74,1.56.68,3.53,1.02,5.9,1.02s4.33-.63,5.6-1.88c1.27-1.25,1.91-2.71,1.91-4.38,0-1.32-.39-2.41-1.15-3.26-.77-.86-1.75-1.58-2.93-2.18-1.19-.59-2.4-1.11-3.63-1.55-1.63-.57-3.19-1.22-4.68-1.94-1.49-.72-2.73-1.65-3.69-2.77-.97-1.12-1.45-2.56-1.45-4.32,0-2.33.88-4.32,2.64-5.97,1.76-1.65,4.29-2.47,7.58-2.47,1.76,0,3.42.31,4.98.92,1.56.62,2.91,1.41,4.05,2.37l-1.58,1.78c-1.05-.75-2.18-1.36-3.36-1.85-1.19-.48-2.59-.72-4.22-.72-2.46,0-4.27.59-5.44,1.78-1.17,1.19-1.75,2.5-1.75,3.95,0,1.19.34,2.17,1.02,2.93.68.77,1.57,1.42,2.67,1.94,1.1.53,2.28,1.03,3.56,1.52,1.67.62,3.31,1.29,4.91,2.01,1.6.73,2.91,1.67,3.92,2.83,1.01,1.17,1.52,2.76,1.52,4.78,0,1.63-.41,3.11-1.22,4.45-.81,1.34-2.02,2.43-3.63,3.26-1.6.83-3.55,1.25-5.83,1.25Z"/>
    <path class="cls-2" d="M439.2,768.93v-2.24l4.75-.26h10.15v2.5h-14.9ZM443.88,798.07v-38.7c0-2.11.31-3.87.92-5.27.61-1.41,1.5-2.46,2.67-3.16,1.16-.7,2.58-1.06,4.25-1.06.75,0,1.53.09,2.34.26.81.18,1.57.44,2.27.79l-.79,2.17c-1.36-.48-2.64-.72-3.82-.72-1.67,0-2.91.63-3.72,1.88-.81,1.25-1.22,3.02-1.22,5.31v38.5h-2.9Z"/>
    <path class="cls-2" d="M471.89,798.86c-2.51,0-4.85-.65-7.02-1.94-2.18-1.3-3.91-3.19-5.21-5.67-1.3-2.48-1.94-5.46-1.94-8.93s.65-6.58,1.94-9.06c1.3-2.48,3.03-4.37,5.21-5.67,2.17-1.3,4.52-1.94,7.02-1.94s4.9.65,7.05,1.94c2.15,1.3,3.89,3.19,5.21,5.67,1.32,2.48,1.98,5.5,1.98,9.06s-.66,6.45-1.98,8.93c-1.32,2.48-3.06,4.37-5.21,5.67-2.15,1.3-4.51,1.94-7.05,1.94ZM471.89,796.29c2.15,0,4.08-.58,5.77-1.75,1.69-1.16,3.01-2.8,3.95-4.91.94-2.11,1.42-4.55,1.42-7.32s-.47-5.22-1.42-7.35c-.95-2.13-2.26-3.79-3.95-4.98-1.69-1.19-3.62-1.78-5.77-1.78s-4,.59-5.67,1.78c-1.67,1.19-3,2.84-3.99,4.98-.99,2.13-1.48,4.58-1.48,7.35s.49,5.21,1.48,7.32c.99,2.11,2.32,3.75,3.99,4.91,1.67,1.16,3.56,1.75,5.67,1.75Z"/>
    <path class="cls-2" d="M495.89,798.07v-31.64h2.5l.26,5.87h.2c1.01-1.93,2.27-3.53,3.79-4.78,1.52-1.25,3.24-1.88,5.17-1.88.57,0,1.11.04,1.62.13.5.09,1.02.26,1.55.53l-.79,2.51c-.44-.13-.85-.23-1.22-.3-.37-.07-.89-.1-1.55-.1-1.41,0-2.89.6-4.45,1.81-1.56,1.21-2.96,3.31-4.19,6.3v21.56h-2.9Z"/>
    <path class="cls-2" d="M517.05,798.07v-31.64h2.5l.26,4.88h.2c1.41-1.62,2.98-2.98,4.71-4.05,1.74-1.08,3.48-1.62,5.24-1.62,2.59,0,4.56.58,5.9,1.75,1.34,1.16,2.3,2.74,2.87,4.71,1.8-1.98,3.59-3.55,5.37-4.71s3.57-1.75,5.37-1.75c3.16,0,5.54,1,7.12,3,1.58,2,2.37,5.04,2.37,9.13v20.3h-2.97v-19.91c0-3.38-.57-5.88-1.71-7.48-1.14-1.6-2.92-2.41-5.34-2.41-1.49,0-3.01.49-4.55,1.48-1.54.99-3.19,2.47-4.94,4.45v23.86h-2.9v-19.91c0-3.38-.57-5.88-1.71-7.48-1.14-1.6-2.94-2.41-5.41-2.41-2.81,0-5.98,1.98-9.49,5.93v23.86h-2.9Z"/>
    <path class="cls-2" d="M577.76,798.86c-1.67,0-3.2-.32-4.58-.96-1.38-.64-2.49-1.59-3.33-2.87s-1.25-2.88-1.25-4.81c0-3.52,1.64-6.2,4.91-8.04,3.27-1.85,8.43-3.16,15.46-3.96.04-1.62-.12-3.21-.49-4.75-.37-1.54-1.1-2.8-2.18-3.79s-2.67-1.48-4.78-1.48-4.04.41-5.8,1.22c-1.76.81-3.19,1.59-4.28,2.34l-1.32-2.04c.75-.57,1.71-1.18,2.9-1.81,1.19-.64,2.54-1.18,4.05-1.62,1.52-.44,3.13-.66,4.84-.66,2.51,0,4.48.55,5.93,1.65,1.45,1.1,2.49,2.57,3.13,4.42.64,1.85.96,3.89.96,6.13v20.24h-2.5l-.26-4.09h-.2c-1.58,1.28-3.33,2.41-5.24,3.4s-3.9,1.48-5.97,1.48ZM578.29,796.35c1.8,0,3.55-.44,5.24-1.32,1.69-.88,3.5-2.15,5.44-3.82v-10.75c-4.31.48-7.72,1.15-10.25,2.01s-4.35,1.91-5.47,3.16-1.68,2.71-1.68,4.38c0,2.24.67,3.86,2.01,4.85,1.34.99,2.91,1.48,4.71,1.48Z"/>
    <path class="cls-2" d="M611.38,798.6c-3.08,0-5.17-.88-6.26-2.64-1.1-1.76-1.65-4.04-1.65-6.86v-20.17h-4.94v-2.24l5.01-.26.4-10.48h2.5v10.48h9.16v2.5h-9.16v20.37c0,2.02.35,3.66,1.06,4.91.7,1.25,2.13,1.88,4.28,1.88.62,0,1.24-.08,1.88-.23.64-.15,1.33-.41,2.08-.76l.92,2.11c-.84.44-1.71.78-2.64,1.02-.92.24-1.8.36-2.64.36Z"/>
    <path class="cls-2" d="M625.03,758.78c-.7,0-1.3-.25-1.78-.76s-.72-1.15-.72-1.94.24-1.43.72-1.91,1.08-.73,1.78-.73c.75,0,1.35.24,1.81.73s.69,1.12.69,1.91-.23,1.44-.69,1.94-1.07.76-1.81.76ZM623.58,798.07v-31.64h2.9v31.64h-2.9Z"/>
    <path class="cls-2" d="M650.48,798.86c-2.51,0-4.85-.65-7.02-1.94-2.17-1.3-3.91-3.19-5.21-5.67-1.3-2.48-1.94-5.46-1.94-8.93s.65-6.58,1.94-9.06c1.3-2.48,3.03-4.37,5.21-5.67,2.18-1.3,4.52-1.94,7.02-1.94s4.9.65,7.05,1.94c2.15,1.3,3.89,3.19,5.21,5.67,1.32,2.48,1.98,5.5,1.98,9.06s-.66,6.45-1.98,8.93c-1.32,2.48-3.05,4.37-5.21,5.67-2.15,1.3-4.51,1.94-7.05,1.94ZM650.48,796.29c2.15,0,4.08-.58,5.77-1.75,1.69-1.16,3.01-2.8,3.95-4.91.95-2.11,1.42-4.55,1.42-7.32s-.47-5.22-1.42-7.35-2.26-3.79-3.95-4.98c-1.69-1.19-3.62-1.78-5.77-1.78s-4,.59-5.67,1.78c-1.67,1.19-3,2.84-3.99,4.98-.99,2.13-1.48,4.58-1.48,7.35s.49,5.21,1.48,7.32c.99,2.11,2.32,3.75,3.99,4.91,1.67,1.16,3.56,1.75,5.67,1.75Z"/>
    <path class="cls-2" d="M674.47,798.07v-31.64h2.51l.26,4.88h.2c1.62-1.62,3.31-2.98,5.04-4.05,1.73-1.08,3.68-1.62,5.83-1.62,3.3,0,5.71,1,7.25,3,1.54,2,2.31,5.04,2.31,9.13v20.3h-2.9v-19.91c0-3.38-.56-5.88-1.68-7.48-1.12-1.6-2.98-2.41-5.57-2.41-1.85,0-3.54.49-5.08,1.48-1.54.99-3.3,2.47-5.27,4.45v23.86h-2.9Z"/>
  </g>
  <path class="cls-1" d="M731.02,767.55h.12c4.23.12,7.81,1.7,10.72,4.73,2.99,3,4.49,6.61,4.49,10.84s-1.54,7.77-4.61,10.6c-3.04,2.8-6.69,4.19-10.96,4.19h-.24c-.36,0-.56-.02-.6-.06h-12.46c-1.44,0-2.16-.72-2.16-2.16s.72-2.16,2.16-2.16h13.24c.4,0,.62.02.66.06,2.91-.12,5.43-1.14,7.55-3.05,2.08-1.96,3.11-4.43,3.11-7.43s-1.1-5.77-3.29-7.97-4.85-3.3-7.97-3.3c.04,0-.1-.04-.42-.12h-1.68c-3.59,0-6.75-1.3-9.46-3.89-2.6-2.72-3.89-5.87-3.89-9.46s1.22-6.49,3.65-8.81c2.52-2.4,5.47-3.67,8.87-3.83.04-.04.16-.06.36-.06h11.74c1.4,0,2.1.72,2.1,2.16s-.7,2.1-2.1,2.1h-11.26v.06c-2.52,0-4.67.78-6.47,2.34-1.76,1.56-2.64,3.57-2.64,6.05s.88,4.59,2.64,6.47c1.88,1.76,4.03,2.64,6.47,2.64h2.22v.06h.12Z"/>
  <g>
    <path class="cls-2" d="M763.94,798.86c-2.51,0-4.85-.65-7.02-1.94-2.17-1.3-3.91-3.19-5.21-5.67-1.3-2.48-1.94-5.46-1.94-8.93s.65-6.58,1.94-9.06c1.3-2.48,3.03-4.37,5.21-5.67,2.18-1.3,4.52-1.94,7.02-1.94s4.9.65,7.05,1.94c2.15,1.3,3.89,3.19,5.21,5.67,1.32,2.48,1.98,5.5,1.98,9.06s-.66,6.45-1.98,8.93c-1.32,2.48-3.05,4.37-5.21,5.67-2.15,1.3-4.51,1.94-7.05,1.94ZM763.94,796.29c2.15,0,4.08-.58,5.77-1.75,1.69-1.16,3.01-2.8,3.95-4.91.95-2.11,1.42-4.55,1.42-7.32s-.47-5.22-1.42-7.35-2.26-3.79-3.95-4.98c-1.69-1.19-3.62-1.78-5.77-1.78s-4,.59-5.67,1.78c-1.67,1.19-3,2.84-3.99,4.98-.99,2.13-1.48,4.58-1.48,7.35s.49,5.21,1.48,7.32c.99,2.11,2.32,3.75,3.99,4.91,1.67,1.16,3.56,1.75,5.67,1.75Z"/>
    <path class="cls-2" d="M791.82,798.6c-.88,0-1.6-.18-2.17-.53-.57-.35-1-.9-1.29-1.65-.29-.75-.43-1.69-.43-2.83v-42.91h2.9v43.31c0,.75.14,1.28.43,1.58.28.31.65.46,1.09.46.13,0,.27-.01.43-.03.15-.02.36-.05.63-.1l.46,2.31c-.26.13-.56.23-.89.3-.33.07-.71.1-1.15.1Z"/>
    <path class="cls-2" d="M812.92,798.86c-3.25,0-5.67-1-7.25-3-1.58-2-2.37-5.04-2.37-9.13v-20.3h2.97v19.91c0,3.34.57,5.82,1.71,7.45,1.14,1.63,2.97,2.44,5.47,2.44,1.89,0,3.6-.52,5.14-1.55,1.54-1.03,3.23-2.67,5.08-4.91v-23.34h2.9v31.64h-2.44l-.33-5.27h-.13c-1.58,1.8-3.22,3.26-4.91,4.38-1.69,1.12-3.64,1.68-5.83,1.68Z"/>
    <path class="cls-2" d="M847.59,798.6c-3.08,0-5.17-.88-6.26-2.64-1.1-1.76-1.65-4.04-1.65-6.86v-20.17h-4.94v-2.24l5.01-.26.4-10.48h2.5v10.48h9.16v2.5h-9.16v20.37c0,2.02.35,3.66,1.06,4.91.7,1.25,2.13,1.88,4.28,1.88.62,0,1.24-.08,1.88-.23.64-.15,1.33-.41,2.08-.76l.92,2.11c-.84.44-1.71.78-2.64,1.02-.92.24-1.8.36-2.64.36Z"/>
    <path class="cls-2" d="M861.24,758.78c-.7,0-1.3-.25-1.78-.76s-.72-1.15-.72-1.94.24-1.43.72-1.91,1.08-.73,1.78-.73c.75,0,1.35.24,1.81.73s.69,1.12.69,1.91-.23,1.44-.69,1.94-1.07.76-1.81.76ZM859.79,798.07v-31.64h2.9v31.64h-2.9Z"/>
    <path class="cls-2" d="M886.69,798.86c-2.51,0-4.85-.65-7.02-1.94-2.17-1.3-3.91-3.19-5.21-5.67-1.3-2.48-1.94-5.46-1.94-8.93s.65-6.58,1.94-9.06c1.3-2.48,3.03-4.37,5.21-5.67,2.18-1.3,4.52-1.94,7.02-1.94s4.9.65,7.05,1.94c2.15,1.3,3.89,3.19,5.21,5.67,1.32,2.48,1.98,5.5,1.98,9.06s-.66,6.45-1.98,8.93c-1.32,2.48-3.05,4.37-5.21,5.67-2.15,1.3-4.51,1.94-7.05,1.94ZM886.69,796.29c2.15,0,4.08-.58,5.77-1.75,1.69-1.16,3.01-2.8,3.95-4.91.95-2.11,1.42-4.55,1.42-7.32s-.47-5.22-1.42-7.35-2.26-3.79-3.95-4.98c-1.69-1.19-3.62-1.78-5.77-1.78s-4,.59-5.67,1.78c-1.67,1.19-3,2.84-3.99,4.98-.99,2.13-1.48,4.58-1.48,7.35s.49,5.21,1.48,7.32c.99,2.11,2.32,3.75,3.99,4.91,1.67,1.16,3.56,1.75,5.67,1.75Z"/>
    <path class="cls-2" d="M910.68,798.07v-31.64h2.51l.26,4.88h.2c1.62-1.62,3.31-2.98,5.04-4.05,1.73-1.08,3.68-1.62,5.83-1.62,3.3,0,5.71,1,7.25,3,1.54,2,2.31,5.04,2.31,9.13v20.3h-2.9v-19.91c0-3.38-.56-5.88-1.68-7.48-1.12-1.6-2.98-2.41-5.57-2.41-1.85,0-3.54.49-5.08,1.48-1.54.99-3.3,2.47-5.27,4.45v23.86h-2.9Z"/>
    <path class="cls-2" d="M953.66,798.86c-2.46,0-4.67-.39-6.63-1.19-1.96-.79-3.62-1.87-4.98-3.23l1.58-1.85c1.32,1.14,2.76,2.06,4.32,2.74,1.56.68,3.53,1.02,5.9,1.02s4.33-.63,5.6-1.88c1.27-1.25,1.91-2.71,1.91-4.38,0-1.32-.39-2.41-1.15-3.26-.77-.86-1.75-1.58-2.93-2.18-1.19-.59-2.4-1.11-3.63-1.55-1.63-.57-3.19-1.22-4.68-1.94-1.49-.72-2.73-1.65-3.69-2.77-.97-1.12-1.45-2.56-1.45-4.32,0-2.33.88-4.32,2.64-5.97s4.29-2.47,7.58-2.47c1.76,0,3.42.31,4.98.92,1.56.62,2.91,1.41,4.05,2.37l-1.58,1.78c-1.05-.75-2.17-1.36-3.36-1.85-1.19-.48-2.59-.72-4.22-.72-2.46,0-4.27.59-5.44,1.78-1.16,1.19-1.75,2.5-1.75,3.95,0,1.19.34,2.17,1.02,2.93.68.77,1.57,1.42,2.67,1.94,1.1.53,2.28,1.03,3.56,1.52,1.67.62,3.31,1.29,4.91,2.01,1.6.73,2.91,1.67,3.92,2.83,1.01,1.17,1.52,2.76,1.52,4.78,0,1.63-.41,3.11-1.22,4.45-.81,1.34-2.02,2.43-3.63,3.26-1.61.83-3.55,1.25-5.83,1.25Z"/>
  </g>
</svg>