<svg width="105" height="95" viewBox="0 0 105 95" fill="none" xmlns="http://www.w3.org/2000/svg">
<g clip-path="url(#clip0_504_2206)">
<path d="M105 0H0V95H105V0Z" fill="#1E1544"/>
<path d="M46.8885 65.8656L46.6356 65.5606C45.713 66.0236 44.916 66.2546 44.2448 66.2546C43.2473 66.2546 42.4367 65.8936 41.8147 65.1725C41.2213 64.4997 40.9032 63.6486 40.8606 62.6196C41.1395 62.6196 41.5551 62.6143 42.1077 62.6027C42.6595 62.5925 43.072 62.5877 43.3442 62.5877C44.8683 62.5877 46.0903 62.4621 47.0129 62.2103L47.1288 62.0624C47.1356 61.8246 47.1387 61.6462 47.1387 61.5269C47.1387 60.1325 46.7899 59.0658 46.0903 58.323C45.4051 57.6014 44.4391 57.2408 43.1872 57.2408C42.0351 57.2408 40.8155 57.7386 39.5308 58.7318C38.6002 59.4539 38.1352 60.7903 38.1352 62.7458C38.1352 63.8696 38.3432 64.813 38.7492 65.5848C37.5686 66.1426 36.3642 66.4234 35.1359 66.4234C33.5983 66.4234 32.3719 66.0662 31.4563 65.3509C29.7384 64.0136 28.8785 62.0943 28.8785 59.5932C28.8785 57.7444 29.3608 56.281 30.3242 55.2027C31.2885 54.1225 32.6198 53.5836 34.3186 53.5836C35.9671 53.5836 37.2277 54.0771 38.1009 55.0654C38.1568 55.3951 38.1952 55.9833 38.2168 56.831L38.3213 56.9465H38.9389L39.0334 56.8416C39.0893 55.5449 39.2371 54.4144 39.4748 53.4478L39.3378 53.2888C37.7019 52.6672 36.0281 52.355 34.3186 52.355C31.6207 52.355 29.4937 53.0587 27.9344 54.4671C26.411 55.8324 25.6504 57.6642 25.6504 59.9605C25.6504 61.3819 25.9618 62.7033 26.5829 63.9222C27.9235 66.5548 30.4187 67.8728 34.0664 67.8728C34.221 67.8728 34.3724 67.8656 34.5245 67.8598C34.4775 67.882 34.4276 67.9013 34.3813 67.924C31.6482 69.2677 30.2818 71.5204 30.2818 74.6799C30.2818 77.1013 31.0539 79.0162 32.6023 80.4202C34.1498 81.8252 36.1742 82.527 38.6777 82.527C40.5767 82.527 42.6953 82.0853 45.0285 81.2032C44.9718 80.6217 44.9441 80.0336 44.9441 79.4377C44.9441 78.2062 44.9783 77.4966 45.0495 77.3115C45.1187 77.125 45.3716 76.98 45.8041 76.8756L45.9091 76.7586V76.2555L45.8041 76.1501C44.5251 76.1636 43.5644 76.1743 42.9215 76.1811C41.8106 76.1888 40.7487 76.1777 39.7354 76.1501L39.6209 76.2555V76.9176L39.7354 77.021C40.7279 77.0849 41.3181 77.1365 41.5066 77.1796C41.7296 77.2279 41.8631 77.31 41.9032 77.4212C41.9533 77.5686 41.9784 77.9886 41.9784 78.6822C41.9784 79.5367 41.9533 80.2085 41.9032 80.6986C41.0517 81.0906 40.1687 81.2878 39.2537 81.2878C37.5267 81.2878 36.1258 80.6217 35.0499 79.2908C34.0173 78.0085 33.498 76.3961 33.498 74.4484C33.498 73.229 33.716 72.1589 34.1492 71.2334C35.0916 69.231 36.7996 68.2277 39.2738 68.2277C40.1962 68.2277 41.0544 68.3823 41.8524 68.6897C42.5927 68.985 43.1161 69.3422 43.425 69.7617C43.4666 69.9299 43.5009 70.2223 43.5293 70.6394C43.5578 71.057 43.5703 71.3311 43.5703 71.4635L43.6764 71.5698H44.3049L44.4201 71.4635C44.5395 69.9372 44.6889 68.8661 44.8716 68.2504L44.7764 68.0604C44.5848 67.9696 44.3591 67.883 44.1176 67.7985C44.9305 67.6646 45.7005 67.3698 46.4259 66.9062L46.8885 65.8657V65.8656ZM40.788 61.232C40.788 59.3552 41.4067 58.4172 42.6419 58.4172C43.8165 58.4172 44.4035 59.3635 44.4035 61.2533C44.4035 61.2958 44.3984 61.3659 44.3934 61.464C43.9676 61.5268 43.486 61.5587 42.9467 61.5587C41.9134 61.5587 41.1928 61.5268 40.788 61.464V61.232Z" fill="white"/>
<path d="M50.463 67.4209C51.644 67.4209 52.5305 67.4417 53.1238 67.4837L53.2294 67.3799V66.7375L53.1238 66.6326C52.3704 66.6191 51.9654 66.4895 51.9088 66.2436C51.8186 65.8303 51.7735 64.7182 51.7735 62.9024V60.9387C51.7735 60.5602 51.9271 60.1847 52.2335 59.8149C52.5966 59.3736 53.1002 59.1528 53.7429 59.1528C54.9729 59.1528 55.5881 60.0078 55.5881 61.7158V63.7743C55.5881 64.6234 55.524 65.8284 55.3996 67.39L55.5042 67.4938C56.4406 67.445 57.1527 67.4209 57.6411 67.4209C58.1729 67.4209 58.8229 67.445 59.5919 67.4938L59.696 67.3798V66.7583L59.602 66.6544C59.0008 66.6404 58.6387 66.5949 58.5114 66.5181C58.3855 66.4403 58.3055 66.2562 58.2713 65.9657C58.2361 65.6737 58.2188 65.002 58.2188 63.9434C58.2188 63.5795 58.2328 62.9695 58.2602 62.116C58.2887 61.2616 58.3031 60.7744 58.3031 60.6559C58.3031 59.5965 58.0794 58.7956 57.6301 58.25C57.0799 57.5758 56.2477 57.2408 55.1383 57.2408C54.5857 57.2408 54.0785 57.3346 53.6175 57.5235L51.8136 59.0364L51.836 57.2717L51.6057 57.1355C50.2142 57.598 48.8919 57.8885 47.633 58.0064L47.5289 58.1229V58.7102L47.633 58.8165C48.1556 58.8368 48.4612 58.8552 48.5448 58.8682C48.776 58.9035 48.9262 58.9915 48.9937 59.1312C49.0997 59.3414 49.154 60.1471 49.154 61.5478V63.0499C49.154 64.0939 49.1255 65.0707 49.0797 65.9812C49.0647 66.2548 48.9888 66.4235 48.8485 66.4854C48.6875 66.5695 48.2716 66.6221 47.6004 66.6443L47.4977 66.7473V67.3901L47.6004 67.494C48.2583 67.4452 49.2125 67.421 50.463 67.421V67.4209Z" fill="white"/>
<path d="M96.489 57.5037C95.8941 57.5235 95.3246 57.5351 94.7793 57.5351C93.8159 57.5351 93.1317 57.5234 92.7253 57.5037L92.6101 57.608V58.2383L92.7161 58.3446C93.5257 58.3446 93.9307 58.4698 93.9307 58.7212C93.9307 59.086 93.4799 60.3509 92.5792 62.5133L91.6564 64.7307L90.1255 60.6757C89.896 60.0391 89.7248 59.5587 89.613 59.2373C89.5431 59.0551 89.5098 58.9 89.5098 58.7748C89.5098 58.4867 89.9071 58.3446 90.7031 58.3446L90.8068 58.2383V57.608L90.7031 57.5037C89.9688 57.5235 89.0156 57.5351 87.8415 57.5351C86.9168 57.5351 86.2133 57.5288 85.7254 57.5176L85.735 57.2716C85.5301 57.188 85.2833 57.1459 84.9901 57.1459C84.4934 57.1459 84.101 57.2851 83.8155 57.5655C83.2013 58.2383 82.6762 58.8279 82.2432 59.33L82.2649 57.2716L82.0354 57.1354C80.6429 57.5978 79.3189 57.8883 78.0625 58.0063L77.9564 58.1228V58.71L78.0625 58.8163C78.5841 58.8367 78.8898 58.855 78.9722 58.8681C79.2037 58.9034 79.3546 58.9914 79.425 59.131C79.5282 59.3413 79.5812 60.147 79.5812 61.5476V63.0498C79.5812 64.0937 79.5567 65.0705 79.5084 65.9811C79.4935 66.2546 79.4183 66.4234 79.277 66.4852C79.1203 66.5674 78.7162 66.6191 78.0716 66.6423L78.0494 66.622C77.4906 66.5877 77.1285 66.5447 76.9607 66.4954C76.8623 66.4697 76.7919 66.4045 76.7505 66.3074C76.6676 66.1116 76.6261 65.2741 76.6261 63.7961V60.4969C76.6261 59.3974 76.6709 58.323 76.761 57.2717L76.5407 57.1355C75.1651 57.598 73.8117 57.8885 72.4838 58.0064L72.3696 58.1229V58.7102L72.4838 58.8165C73.0147 58.8368 73.3238 58.8552 73.4072 58.8682C73.6381 58.9035 73.7842 58.9915 73.8459 59.1312C73.9515 59.3704 74.0041 60.1756 74.0041 61.5478V63.4278C74.0041 63.5124 73.9974 63.7265 73.9829 64.0697C73.9612 64.5182 73.7567 64.9165 73.3642 65.2673C72.953 65.6177 72.4737 65.7917 71.9303 65.7917C71.4886 65.7917 71.1366 65.6839 70.8763 65.4665C70.613 65.2495 70.4471 64.9309 70.3787 64.5109C70.315 64.162 70.2842 63.5052 70.2842 62.5463V60.497C70.2842 59.5096 70.3295 58.4342 70.4192 57.2718L70.1907 57.1355C68.8927 57.5734 67.6121 57.8518 66.3455 57.9809C65.764 58.0118 64.7736 57.9547 64.0668 57.9547H63.722L63.8146 56.137C63.8508 55.4512 63.9111 54.6735 63.9945 53.8045L63.7221 53.5952C63.1281 53.8896 62.6681 54.1003 62.3422 54.2303C62.0186 54.3618 61.5934 54.5087 61.0702 54.6778C61.1262 55.3424 61.1537 55.9722 61.1537 56.5672V57.9963C60.9936 58.1297 60.7554 58.2946 60.4401 58.4903C60.1753 58.6595 59.9801 58.7847 59.8547 58.8682L59.7704 59.0268V59.3003L59.8866 59.3941H60.3157L60.8707 59.3738H61.1538V61.9997L61.1229 64.511C61.1152 65.134 61.147 65.6386 61.2164 66.0238C61.2815 66.3453 61.4059 66.6295 61.5935 66.8754C62.0419 67.4419 62.7516 67.7256 63.7222 67.7256C64.0713 67.7256 64.4174 67.6691 64.7598 67.5584C65.0519 67.2355 65.4059 66.8779 65.8176 66.4855C66.0702 66.2481 66.2197 66.1007 66.2684 66.0446L66.0389 65.6672C65.632 65.8204 65.2867 65.8973 65.0018 65.8973C64.6373 65.8973 64.349 65.8078 64.1349 65.6247C63.9237 65.4415 63.7993 65.2047 63.7631 64.9098C63.7366 64.7082 63.7221 64.034 63.7221 62.8919V59.3304H67.5591C67.6276 59.6919 67.6633 60.427 67.6633 61.5479V62.892C67.6633 63.2501 67.6575 63.6209 67.643 64.0056C67.6281 64.3913 67.6223 64.644 67.6223 64.7634C67.6223 65.73 67.8937 66.4705 68.4395 66.9852C68.9844 67.5 69.7293 67.7585 70.6714 67.7585C71.1883 67.7585 71.6743 67.6691 72.128 67.4941C73.0364 66.6053 73.6733 66.0239 74.0364 65.7503C74.0364 66.268 74.0075 66.8146 73.9515 67.3902L74.0364 67.4729C74.2591 67.4729 74.5976 67.4647 75.0523 67.4473C75.5065 67.4294 75.8489 67.4212 76.0798 67.4212C76.3474 67.4212 76.9921 67.4381 78.0069 67.471L78.0301 67.4941C78.6877 67.4453 79.6409 67.4211 80.8917 67.4211C81.9047 67.4211 82.9249 67.4419 83.952 67.484L84.057 67.3801V66.7377L83.952 66.6444C83.1145 66.6155 82.6279 66.5633 82.4958 66.4855C82.3613 66.4095 82.29 66.2414 82.2755 65.9813C82.2262 65.0708 82.2012 64.3594 82.2012 63.849V61.3922C82.2012 60.8862 82.3063 60.5034 82.5161 60.2458C82.8584 59.8249 83.2914 59.6161 83.8154 59.6161C84.396 59.6161 84.8506 59.8524 85.178 60.3289L85.6177 60.1941C85.6394 59.7998 85.6539 59.4508 85.6606 59.1415L85.691 58.3739C85.9389 58.404 86.124 58.4576 86.232 58.5382C86.3959 58.6596 86.5763 58.9776 86.7715 59.4894L90.1683 68.3351L89.7382 69.3443C89.1239 70.7783 88.4494 71.497 87.7155 71.497C87.0926 71.497 86.6003 71.2379 86.2382 70.7198L85.9648 70.7725C85.8973 71.2577 85.8298 71.6797 85.7643 72.048C85.3636 71.9421 84.9243 71.8837 84.4364 71.8837C83.7238 71.8837 83.1944 72.0141 82.853 72.2737C82.1403 72.8541 81.5493 73.3413 81.0825 73.7347C81.1442 72.8232 81.176 72.2176 81.176 71.9165L80.9456 71.7797C79.5758 72.2427 78.2243 72.5332 76.8907 72.6516L76.7851 72.7667V73.3553L76.8907 73.4593C77.4205 73.481 77.7287 73.499 77.8111 73.513C78.0498 73.5487 78.1935 73.6309 78.246 73.7599C78.2986 73.8894 78.3361 74.1814 78.3569 74.6376C78.3988 75.6038 78.4196 76.1219 78.4196 76.1924V82.2963L78.3988 82.8192C78.3912 83.4702 78.3781 84.0057 78.3569 84.4263C78.3289 84.9801 78.3005 85.3223 78.273 85.4562C78.2585 85.5249 78.217 85.5925 78.1476 85.6554C78.043 85.7472 77.6385 85.8032 76.9311 85.8245L76.826 85.9396V86.5708L76.9311 86.6752C77.8111 86.6186 78.692 86.5925 79.5724 86.5925C80.7739 86.5925 81.8472 86.6186 82.7903 86.6752L82.8949 86.5708V85.9178L82.7797 85.8134C81.9981 85.7574 81.5493 85.7153 81.4388 85.6873C81.2913 85.652 81.1987 85.6075 81.1553 85.5515C81.0782 85.4461 81.0392 85.232 81.0392 84.9091V82.0754C81.6476 82.2996 82.257 82.4118 82.8631 82.4118C83.4991 82.4118 84.0241 82.2745 84.4364 82.0029C85.1278 81.4766 85.7045 81.0285 86.1655 80.6573C86.6052 80.3282 86.9061 80.0759 87.0661 79.9009C87.4301 79.5026 87.7248 79.0131 87.9461 78.4408C88.2542 77.6564 88.4085 76.8333 88.4085 75.9716C88.4085 75.1881 88.2658 74.4902 87.9779 73.8803C87.8574 73.6246 87.7103 73.4013 87.5487 73.1949C88.1712 73.1156 88.7146 72.8778 89.1732 72.4646C89.7735 71.9179 90.3366 70.9967 90.8603 69.7015L92.5473 65.5193C93.1476 64.0283 93.9055 62.2835 94.8222 60.2869C95.2277 59.4116 95.4755 58.8969 95.5666 58.7432C95.7325 58.4769 96.0473 58.345 96.5082 58.345L96.6032 58.2502V57.6084L96.4889 57.504L96.489 57.5037ZM66.3089 57.9851C66.2611 57.9899 66.2134 57.9981 66.1657 58.0024L66.1541 57.9962L66.3089 57.9851ZM85.4211 79.2597C85.0368 80.4443 84.275 81.0359 83.1371 81.0359C82.3767 81.0359 81.6771 80.6986 81.0393 80.0258V74.8157C81.6063 74.1086 82.3198 73.7543 83.1786 73.7543C83.6395 73.7543 84.0836 73.894 84.5093 74.1743C85.3117 74.7069 85.7138 75.7369 85.7138 77.2637C85.7138 77.9979 85.6173 78.6648 85.4211 79.2597Z" fill="white"/>
<path d="M52.4914 72.2107C51.8762 72.8824 51.3518 73.4707 50.9196 73.9748L50.9403 71.9163L50.7091 71.7795C49.32 72.2426 47.9953 72.5331 46.7381 72.6514L46.633 72.7665V73.3552L46.7381 73.4591C47.2615 73.4808 47.5655 73.4988 47.6489 73.5128C47.8801 73.5485 48.0305 73.6355 48.0997 73.7738C48.2048 73.9855 48.2567 74.7907 48.2567 76.1923V77.695C48.2567 78.7384 48.2323 79.7166 48.1841 80.6243C48.1706 80.8988 48.093 81.067 47.9527 81.1299C47.7933 81.2135 47.3784 81.2662 46.7066 81.2879L46.6021 81.3919V82.0343L46.7066 82.1381C47.3625 82.0898 48.3167 82.0647 49.5671 82.0647C50.5797 82.0647 51.6016 82.0855 52.6291 82.129L52.7318 82.0226V81.3827L52.6291 81.288C51.7901 81.2594 51.3034 81.2078 51.1715 81.1299C51.0389 81.0521 50.9647 80.8839 50.9511 80.6244C50.9019 79.7167 50.8776 79.0038 50.8776 78.4924V76.0348C50.8776 75.5292 50.9819 75.1488 51.1914 74.8893C51.5338 74.4693 51.968 74.2591 52.4913 74.2591C53.0716 74.2591 53.5248 74.4959 53.8552 74.9739L54.2944 74.8367C54.3161 74.4452 54.3286 74.0943 54.3363 73.785L54.4096 71.9164C54.2076 71.8319 53.9588 71.7908 53.6666 71.7908C53.169 71.7908 52.7785 71.9304 52.4913 72.2108L52.4914 72.2107Z" fill="white"/>
<path d="M59.6927 71.7378C58.6301 71.7378 57.6971 71.9326 56.8928 72.326C55.2593 73.1235 54.442 74.7243 54.442 77.1259C54.442 78.8639 54.862 80.1983 55.7034 81.1297C56.5466 82.062 57.7713 82.5269 59.3784 82.5269C60.4193 82.5269 61.3456 82.3138 62.1556 81.886C63.82 81.0107 64.6502 79.3331 64.6502 76.8547C64.6502 75.7334 64.4762 74.8001 64.1261 74.0587C63.4 72.5111 61.9227 71.7378 59.6927 71.7378ZM61.5384 79.848C61.2722 80.919 60.6537 81.4559 59.6826 81.4559C58.1242 81.4559 57.3446 79.8411 57.3446 76.6121C57.3446 74.0984 58.0394 72.8408 59.43 72.8408C60.2129 72.8408 60.7949 73.2173 61.1753 73.9693C61.5577 74.7223 61.7487 75.9712 61.7487 77.7155C61.7487 78.5768 61.6778 79.2878 61.5384 79.848Z" fill="white"/>
<path d="M76.9332 82.0124V81.371L76.818 81.2661C76.2587 81.2318 75.8937 81.1893 75.7278 81.1405C75.6299 81.1139 75.559 81.0486 75.5181 80.9505C75.4337 80.7548 75.3932 79.9182 75.3932 78.4406V75.141C75.3932 74.0414 75.4366 72.9661 75.5282 71.9163L75.3088 71.7795C73.9314 72.2426 72.5799 72.5331 71.2525 72.6514L71.1368 72.7665V73.3552L71.2525 73.4591C71.7834 73.4808 72.09 73.4988 72.1744 73.5128C72.4053 73.5485 72.5524 73.6355 72.6151 73.7738C72.7192 74.014 72.7727 74.8192 72.7727 76.1923V78.0724C72.7727 78.157 72.7646 78.3691 72.7501 78.7123C72.7293 79.1627 72.5229 79.5615 72.1334 79.9104C71.7202 80.2623 71.2429 80.4368 70.6965 80.4368C70.2577 80.4368 69.9063 80.328 69.643 80.1105C69.3812 79.8931 69.2149 79.5741 69.1455 79.1541C69.0823 78.8051 69.0524 78.1502 69.0524 77.1894V75.1411C69.0524 74.1536 69.0958 73.0792 69.1874 71.9164L68.957 71.7796C67.5881 72.2426 66.2357 72.5331 64.902 72.6515L64.7964 72.7666V73.3552L64.902 73.4592C65.431 73.4809 65.7391 73.4988 65.8225 73.5129C66.0539 73.5486 66.2034 73.6356 66.2733 73.7738C66.3784 74.0001 66.431 74.8057 66.431 76.1923V77.5369C66.431 77.8932 66.4237 78.2658 66.4093 78.6505C66.3953 79.0348 66.3895 79.288 66.3895 79.4069C66.3895 80.3735 66.6615 81.115 67.2072 81.6287C67.7516 82.1439 68.4956 82.401 69.4387 82.401C69.9565 82.401 70.4416 82.314 70.8963 82.1381C71.8037 81.2498 72.4387 80.6678 72.8037 80.3933C72.8037 80.9134 72.7742 81.4595 72.7193 82.0342L72.8037 82.1183C73.0284 82.1183 73.3654 82.1082 73.8205 82.0912C74.2747 82.0738 74.6175 82.0646 74.8466 82.0646C75.12 82.0646 75.7795 82.082 76.8282 82.1183L76.9333 82.0125L76.9332 82.0124Z" fill="white"/>
</g>
<defs>
<clipPath id="clip0_504_2206">
<rect width="105" height="95" fill="white"/>
</clipPath>
</defs>
</svg>
