<svg width="148" height="25" viewBox="0 0 148 25" fill="none" xmlns="http://www.w3.org/2000/svg">
<g id="Logo">
<path id="Fill-1" fill-rule="evenodd" clip-rule="evenodd" d="M23.9955 0.0146484H0C0 1.91198 1.57676 3.60589 3.42783 3.60589H18.4079C19.3335 3.60589 20.8416 3.19924 21.5618 2.41996C20.8416 3.19924 20.3619 4.62205 20.3619 5.53687V20.3423C20.3619 22.1716 22.0758 23.7301 23.9955 23.7301V0.0146484Z" fill="#FF455D"/>
<path id="Fill-2" fill-rule="evenodd" clip-rule="evenodd" d="M16.1458 7.80762H0C0 9.70494 1.57695 11.3989 3.42801 11.3989H10.764C11.6892 11.3989 12.9921 10.9924 13.7121 10.2129C12.9921 10.9924 12.5119 12.2122 12.5119 13.1266V20.3429C12.5119 22.1726 14.2259 23.7309 16.1458 23.7309V7.80762Z" fill="#FF6A7D"/>
<path id="Fill-3" fill-rule="evenodd" clip-rule="evenodd" d="M8.29564 15.5322H0C0 17.3957 1.33708 18.9541 3.29086 18.9541C4.11358 18.9541 4.9363 18.7507 5.51914 18.2765C5.03921 18.8524 4.83339 19.6655 4.83339 20.4786C4.83339 22.4098 6.37591 23.7312 8.29564 23.7312V15.5322Z" fill="#F5928A"/>
<path id="Fill-5" fill-rule="evenodd" clip-rule="evenodd" d="M80.394 20.9803C77.6416 20.9803 75.6461 18.7701 75.6461 16.2538C75.6461 13.7375 77.6416 11.5273 80.394 11.5273C83.1119 11.5273 85.0388 13.7375 85.0388 16.2538C85.0388 18.7701 83.1119 20.9803 80.394 20.9803ZM80.394 8.29688C75.715 8.29688 72.1367 11.6292 72.1367 16.2538C72.1367 20.8782 75.715 24.2106 80.394 24.2106C85.073 24.2106 88.548 20.8782 88.548 16.2538C88.548 11.6292 85.073 8.29688 80.394 8.29688Z" fill="white"/>
<path id="Fill-7" fill-rule="evenodd" clip-rule="evenodd" d="M43.6833 12.1392H39.1762V3.46845H43.6833C46.2982 3.46845 48.3968 5.03254 48.3968 7.82084C48.3968 10.6091 46.2982 12.1392 43.6833 12.1392ZM42.9265 0H35.3916V23.8026H39.1762V15.6076H42.9265C48.9472 15.6076 52.0093 12.0713 52.0093 7.82084C52.0093 3.57034 48.9472 0 42.9265 0Z" fill="white"/>
<path id="Fill-8" fill-rule="evenodd" clip-rule="evenodd" d="M63.2252 8.29683C60.7479 8.29683 59.1309 9.38493 58.3396 11.1192C58.546 10.4052 58.6837 9.31706 58.6837 8.53483V3.46845C58.6837 1.36012 57.5828 0 55.2432 0H55.1743V23.8026H58.6837V15.7437C58.6837 13.0914 60.0255 11.4933 62.2962 11.4933C64.6014 11.4933 65.8056 13.0914 65.8056 15.7437V23.8026H69.3148V15.2335C69.3148 10.9832 66.9066 8.29683 63.2252 8.29683Z" fill="white"/>
<path id="Fill-9" fill-rule="evenodd" clip-rule="evenodd" d="M117.448 8.29688C115.26 8.29688 113.843 9.07763 112.922 10.197C112.684 9.21077 112.308 8.705 111.152 8.705H109.466V23.8026H112.975V15.8797C112.975 13.3294 114.145 11.4933 116.622 11.4933C119.1 11.4933 120.097 13.3294 120.097 15.8797V23.8026H123.607V15.4037C123.607 10.8812 121.198 8.29688 117.448 8.29688Z" fill="white"/>
<path id="Fill-10" fill-rule="evenodd" clip-rule="evenodd" d="M98.6285 11.4252C101.265 11.4252 102.807 13.0718 103.015 14.8256H94.2809C94.7864 12.7149 96.4581 11.4252 98.6285 11.4252ZM98.6285 8.29688C94.0184 8.29688 90.7842 11.7993 90.7842 16.2198C90.7842 20.6062 94.0183 24.1427 98.9382 24.1427C101.45 24.1427 103.549 23.3605 105.303 21.1162L102.964 19.178C101.863 20.3682 100.899 21.0143 99.007 21.0143C96.5314 21.0143 94.639 19.6524 94.2124 17.2739H106.232C106.335 16.7298 106.37 16.1177 106.37 15.5737C106.37 11.5273 103.342 8.29688 98.6285 8.29688Z" fill="white"/>
<path id="Fill-11" fill-rule="evenodd" clip-rule="evenodd" d="M142.527 16.265L147.965 8.70508H145.66C144.387 8.70508 143.527 9.14705 142.77 10.2351L141.222 12.4794C140.878 12.9896 140.637 13.3635 140.499 13.9076C140.327 13.3635 140.086 12.9896 139.742 12.4794L138.229 10.2351C137.506 9.18107 136.646 8.70508 135.339 8.70508H133.137L138.543 16.2618L133.068 23.8027H135.304C136.612 23.8027 137.506 23.3267 138.194 22.2384L139.742 19.8242C140.018 19.4161 140.258 19.0422 140.465 18.3961C140.637 19.0422 140.878 19.4161 141.153 19.8242L142.736 22.2384C143.458 23.3267 144.318 23.8027 145.626 23.8027H148L142.527 16.265Z" fill="white"/>
<path id="Fill-12" fill-rule="evenodd" clip-rule="evenodd" d="M128.699 0.713867C127.46 0.713867 126.497 1.66604 126.497 2.85622C126.497 4.08024 127.46 5.03241 128.699 5.03241C129.903 5.03241 130.866 4.08024 130.866 2.85622C130.866 1.66604 129.903 0.713867 128.699 0.713867Z" fill="white"/>
<path id="Fill-13" fill-rule="evenodd" clip-rule="evenodd" d="M126.944 23.8027H130.453V8.70508H126.944V23.8027Z" fill="white"/>
</g>
</svg>
